<?xml version="1.0"?>
<svg xmlns="http://www.w3.org/2000/svg" xmlns:xlink="http://www.w3.org/1999/xlink" version="1.1" id="Capa_1" x="0px" y="0px" viewBox="0 0 512 512" style="enable-background:new 0 0 512 512;" xml:space="preserve" width="512px" height="512px" class=""><g transform="matrix(0.284708 0 0 0.284708 183.115 183.115)"><path style="fill:#54545B;" d="M104.469,385.464C63.407,385.464,30,352.058,30,310.996s33.407-74.469,74.469-74.469v-30  C46.865,206.527,0,253.392,0,310.996s46.865,104.469,104.469,104.469V385.464z" data-original="#54545B" class=""/><path style="fill:#373737;" d="M407.531,206.527c-57.604,0-104.469,46.865-104.469,104.469s46.865,104.469,104.469,104.469  S512,368.6,512,310.996S465.135,206.527,407.531,206.527z M333.062,310.996c0-41.062,33.407-74.469,74.469-74.469  c41.063,0,74.469,33.407,74.469,74.469s-33.407,74.469-74.469,74.469C366.469,385.464,333.062,352.058,333.062,310.996z" data-original="#373737"/><path style="fill:#54545B;" d="M407.531,385.464c-41.062,0-74.469-33.407-74.469-74.469s33.407-74.469,74.469-74.469v-30  c-57.604,0-104.469,46.865-104.469,104.469s46.865,104.469,104.469,104.469V385.464z" data-original="#54545B" class=""/><g>
	<path style="fill:#FFFFFF;" d="M178.938,310.996c0-41.062-33.407-74.469-74.469-74.469S30,269.934,30,310.996   s33.407,74.469,74.469,74.469C145.531,385.464,178.938,352.058,178.938,310.996z" data-original="#FFFFFF"/>
	<path style="fill:#FFFFFF;" d="M407.531,236.527c-41.063,0-74.469,33.407-74.469,74.469s33.407,74.469,74.469,74.469   S482,352.058,482,310.996S448.593,236.527,407.531,236.527z" data-original="#FFFFFF"/>
</g><path style="fill:#F05449;" d="M147.163,243.858c2.337,5.881,7.979,9.465,13.944,9.465c1.843,0,3.717-0.342,5.535-1.064  c7.699-3.059,11.46-11.78,8.401-19.479l-29.193-73.471c-3.059-7.699-11.779-11.46-19.479-8.401  c-7.699,3.059-11.46,11.78-8.401,19.479L147.163,243.858z" data-original="#F05449"/><path style="fill:#373737;" d="M156.188,147.848h-51.719c-8.284,0-15,6.716-15,15s6.716,15,15,15h51.719c8.284,0,15-6.716,15-15  S164.472,147.848,156.188,147.848z" data-original="#373737"/><path style="fill:#CC1F2C;" d="M419.876,302.475c-0.575-0.833-57.651-84.071-70.79-150.65  c-6.323-32.038-34.634-55.291-67.318-55.291c-8.284,0-15,6.716-15,15s6.716,15,15,15c3.569,0,7.044,0.498,10.355,1.423  c10.065,2.812,18.589,9.632,23.57,18.772c-0.398,0.507-0.778,1.034-1.116,1.604l-28.236,47.536H156.188c-8.284,0-15,6.716-15,15  s6.716,15,15,15h112.334l-41.655,70.127H104.469c-8.284,0-15,6.716-15,15s6.716,15,15,15h130.935c5.292,0,10.193-2.789,12.896-7.339  l78.831-132.712c20.964,64.883,65.883,130.424,68.056,133.572c2.911,4.217,7.594,6.48,12.358,6.48c2.938,0,5.907-0.862,8.508-2.657  C422.87,318.634,424.582,309.292,419.876,302.475z" data-original="#CC1F2C"/><path style="fill:#F05449;" d="M156.188,225.869h66.159v-30h-66.159c-8.284,0-15,6.716-15,15S147.904,225.869,156.188,225.869z" data-original="#F05449"/><path style="fill:#373737;" d="M104.469,206.527C46.865,206.527,0,253.392,0,310.996s46.865,104.469,104.469,104.469  S208.938,368.6,208.938,310.996S162.073,206.527,104.469,206.527z M30,310.996c0-41.062,33.407-74.469,74.469-74.469  c41.063,0,74.469,33.407,74.469,74.469s-33.407,74.469-74.469,74.469C63.407,385.464,30,352.058,30,310.996z" data-original="#373737"/><path style="fill:#F05449;" d="M222.347,295.996H104.469c-8.284,0-15,6.716-15,15s6.716,15,15,15h117.878V295.996z" data-original="#F05449"/></g> </svg>
