<?xml version="1.0"?>
<svg xmlns="http://www.w3.org/2000/svg" xmlns:xlink="http://www.w3.org/1999/xlink" version="1.1" id="Capa_1" x="0px" y="0px" viewBox="0 0 512 512" style="enable-background:new 0 0 512 512;" xml:space="preserve" width="512px" height="512px" class=""><g transform="matrix(0.296387 0 0 0.296387 180.125 180.125)"><rect x="235.703" y="292.789" style="fill:#825B43;" width="40.595" height="211.6" data-original="#825B43"/><g>
	<path style="fill:#444039;" d="M316.892,512H195.108c-4.205,0-7.611-3.408-7.611-7.611s3.407-7.612,7.611-7.612h121.784   c4.205,0,7.612,3.408,7.612,7.612S321.097,512,316.892,512z" data-original="#444039" class=""/>
	<path style="fill:#444039;" d="M134.977,512H43.639c-9.792,0-17.76-7.968-17.76-17.76v-59.37c0-4.204,3.407-7.611,7.611-7.611   s7.611,3.408,7.611,7.611v59.37c0,1.375,1.162,2.537,2.537,2.537h91.338c1.375,0,2.537-1.162,2.537-2.537v-59.37   c0-4.204,3.407-7.611,7.611-7.611c4.205,0,7.611,3.408,7.611,7.611v59.37C152.737,504.032,144.77,512,134.977,512z" data-original="#444039" class=""/>
</g><path style="fill:#A47C64;" d="M159.588,434.87H19.029c-8.407,0-15.223-6.816-15.223-15.223v-30.446  c0-8.407,6.816-15.223,15.223-15.223h140.559c8.407,0,15.223,6.816,15.223,15.223v30.446  C174.811,428.054,167.995,434.87,159.588,434.87z" data-original="#A47C64"/><path style="fill:#825B43;" d="M159.588,373.978h-7.611v38.057H3.806v7.611c0,8.407,6.816,15.223,15.223,15.223h140.559  c8.407,0,15.223-6.816,15.223-15.223v-30.446C174.811,380.794,167.995,373.978,159.588,373.978z" data-original="#825B43"/><path style="fill:#444039;" d="M468.361,512h-91.338c-9.792,0-17.76-7.968-17.76-17.76v-59.37c0-4.204,3.407-7.611,7.612-7.611  s7.611,3.408,7.611,7.611v59.37c0,1.375,1.162,2.537,2.537,2.537h91.338c1.375,0,2.537-1.162,2.537-2.537v-59.37  c0-4.204,3.407-7.611,7.612-7.611s7.611,3.408,7.611,7.611v59.37C486.121,504.032,478.153,512,468.361,512z" data-original="#444039" class=""/><path style="fill:#A47C64;" d="M492.971,434.87H352.412c-8.407,0-15.223-6.816-15.223-15.223v-30.446  c0-8.407,6.816-15.223,15.223-15.223h140.559c8.407,0,15.223,6.816,15.223,15.223v30.446  C508.194,428.054,501.378,434.87,492.971,434.87z" data-original="#A47C64"/><path style="fill:#825B43;" d="M492.971,373.978h-7.612v38.057h-148.17v7.611c0,8.407,6.816,15.223,15.223,15.223h140.559  c8.407,0,15.223-6.816,15.223-15.223v-30.446C508.194,380.794,501.378,373.978,492.971,373.978z" data-original="#825B43"/><path style="fill:#444039;" d="M256.06,259.806c-4.205,0-7.611-3.408-7.611-7.611V120.296c0-4.204,3.407-7.611,7.611-7.611  c4.205,0,7.612,3.408,7.612,7.611v131.898C263.671,256.398,260.263,259.806,256.06,259.806z" data-original="#444039" class=""/><path style="fill:#A47C64;" d="M423.453,313.086H88.547c-8.407,0-15.223-6.816-15.223-15.223v-30.446  c0-8.407,6.816-15.223,15.223-15.223h334.906c8.407,0,15.223,6.816,15.223,15.223v30.446  C438.676,306.27,431.86,313.086,423.453,313.086z" data-original="#A47C64"/><path style="fill:#825B43;" d="M423.453,252.194h-7.612v38.057H73.324v7.612c0,8.407,6.816,15.223,15.223,15.223h334.906  c8.407,0,15.223-6.816,15.223-15.223v-30.446C438.676,259.01,431.86,252.194,423.453,252.194z" data-original="#825B43"/><path style="fill:#8ED8D4;" d="M41.493,119.54c-3.692,5.957,2.57,13.074,8.968,10.215c32.332-14.445,57.12-12.392,85.258,5.049  h0.004c3.201,1.984,6.79,3.156,10.46,3.465L256,0C165.39,0,85.953,47.793,41.493,119.54z" data-original="#8ED8D4"/><path style="fill:#47B5BD;" d="M168.804,109.788c-5.634,1.464-11.38,3.042-17.291,4.766l-3.245,0.944  c-0.015,0.004-0.054,0.016-0.115,0.017l-0.09-0.009c-0.11-0.015-0.213-0.053-0.307-0.11l-5.533-3.427h-0.274  c-29.81-16.726-58.326-19.04-90.526-7.245c-3.477,4.816-6.795,9.754-9.931,14.816c-3.692,5.957,2.57,13.074,8.968,10.215  c32.332-14.445,57.12-12.392,85.258,5.049h0.004c3.201,1.984,6.789,3.156,10.46,3.465L168.804,109.788z" data-original="#47B5BD"/><path style="fill:#F3D035;" d="M469.25,117.532C424.559,46.903,345.763,0,256,0l110.131,138.665  c3.414-0.163,6.787-1.048,9.872-2.664h0.014c32.924-17.243,56.655-20.864,84.364-8.137  C466.793,130.808,473.022,123.494,469.25,117.532z" data-original="#F3D035"/><path style="fill:#EFA628;" d="M469.25,117.532c-3.192-5.045-6.564-9.964-10.096-14.758c-27.848-9.686-54.598-6.46-88.618,10.393  h-0.155l-4.978,2.609c-0.046,0.023-0.142,0.054-0.277,0.069l-0.103,0.005c-0.082,0.003-0.139,0.002-0.169,0l-2.868-0.845h-0.022  c-6.416-1.875-12.636-3.585-18.722-5.161l22.89,28.821c3.414-0.163,6.787-1.048,9.872-2.664h0.014  c32.924-17.243,56.655-20.864,84.364-8.137C466.793,130.808,473.022,123.494,469.25,117.532z" data-original="#EFA628"/><path style="fill:#D04E3F;" d="M256,0c-48.482,0-90.478,56.172-111.03,138.134c3.247,0.443,6.584,0.208,9.797-0.746h0.036  c77.183-22.908,125.393-22.852,203.613,0.376h0.021c2.852,0.847,5.806,1.113,8.714,0.846C346.641,56.39,304.576,0,256,0z" data-original="#D04E3F"/><path style="fill:#AF313D" d="M151.721,114.494c-2.452,7.607-4.71,15.494-6.752,23.64c3.247,0.443,6.584,0.208,9.797-0.746h0.036  c77.183-22.908,125.393-22.852,203.613,0.376h0.021c2.852,0.847,5.806,1.113,8.714,0.846c-2.071-8.305-4.366-16.34-6.862-24.086  C281.623,91.738,229.792,91.753,151.721,114.494z" data-original="#AF313D" class="active-path"/></g> </svg>
