<?xml version="1.0"?>
<svg xmlns="http://www.w3.org/2000/svg" xmlns:xlink="http://www.w3.org/1999/xlink" version="1.1" id="Capa_1" x="0px" y="0px" viewBox="0 0 511.994 511.994" style="enable-background:new 0 0 511.994 511.994;" xml:space="preserve" width="512px" height="512px" class=""><g transform="matrix(0.396678 0 0 0.396678 154.449 154.449)"><path style="fill:#FFE000" d="M342.328,207.546C267.544,83.45,162.36-25.862,105.72,5.402C98.104,9.626,87.992,18.49,83.096,36.826  c-13.76,51.296,21.056,158.848,86.592,267.616c66.016,109.568,155.744,207.52,214.784,207.52c7.84,0,15.168-1.728,21.824-5.408  c7.616-4.224,17.728-13.088,22.624-31.392C442.616,423.834,407.832,316.314,342.328,207.546z" data-original="#1976D2" class="" data-old_color="#1976D2"/><path style="fill:#2196F3;" d="M428.888,36.826c-4.896-18.336-15.008-27.2-22.624-31.424  c-56.192-31.2-161.76,77.984-236.576,202.176c-65.536,108.768-100.32,216.288-86.592,267.584  c4.896,18.304,15.008,27.2,22.624,31.392c6.656,3.648,13.952,5.408,21.792,5.408c59.008,0,148.8-98.016,214.816-207.52  C407.832,195.674,442.616,88.122,428.888,36.826z" data-original="#2196F3" class=""/><path style="fill:#E83C02" d="M115.128,197.626l56.256-79.616l81.28-33.6c-7.904-8.864-15.776-17.12-23.648-24.864l-74.144,30.656  c-2.784,1.152-5.216,3.104-6.944,5.568l-46.656,66.016C105.336,173.402,109.944,185.338,115.128,197.626z" data-original="#90CAF9" class="active-path" data-old_color="#D33702"/><path style="fill:#455A64;" d="M198.712,368.666c-3.648-2.848-8.384-3.968-12.896-3.136c-4.544,0.896-8.48,3.712-10.816,7.712  l-32,55.424c-2.56,4.448-2.848,9.856-0.736,14.528s6.304,8.096,11.328,9.12c36.224,7.584,39.2,43.68,39.232,43.68  c0,7.552,5.312,14.08,12.672,15.648c1.152,0.224,2.24,0.352,3.328,0.352c6.208,0,12-3.616,14.624-9.504  C253.272,435.29,220.312,385.562,198.712,368.666z" data-original="#455A64" class=""/></g> </svg>
