<svg xmlns="http://www.w3.org/2000/svg" xmlns:xlink="http://www.w3.org/1999/xlink" version="1.1" id="Capa_1" x="0px" y="0px" viewBox="0 0 511.999 511.999" style="enable-background:new 0 0 511.999 511.999;" xml:space="preserve" width="512" height="512" class=""><g transform="matrix(0.341166 0 0 0.341166 168.661 168.661)"><rect x="316.008" y="360.865" style="fill:#9E5015;" width="60.009" height="151.023" data-original="#9E5015"></rect><rect x="346.013" y="360.865" style="fill:#663300;" width="30.005" height="151.023" data-original="#663300"></rect><path style="fill:#93D632;" d="M510.539,382.468c-2.701,5.102-7.801,8.402-13.502,8.402H195.99c-5.701,0-10.802-3.3-13.502-8.402  c-2.401-5.1-1.8-11.102,1.5-15.601l90.014-120.019c5.102-6.602,14.403-7.801,21.003-3.001h102.017  c6.6-5.1,15.901-3.601,21.003,3.001l91.014,120.019C512.339,371.367,512.939,377.368,510.539,382.468z" data-original="#93D632"></path><g>
	<path style="fill:#78B22A;" d="M510.539,382.468c-2.701,5.102-7.801,8.402-13.502,8.402H346.014V243.847h51.008   c6.6-5.1,15.901-3.601,21.003,3.001l91.014,120.019C512.339,371.367,512.939,377.368,510.539,382.468z" data-original="#78B22A" class=""></path>
	<path style="fill:#78B22A;" d="M479.534,262.449c-2.701,5.102-7.801,8.402-13.502,8.402h-53.707l-25.806,25.504   c-2.699,3.001-6.6,4.502-10.501,4.502c-3.901,0-7.801-1.5-10.501-4.502l-19.504-19.203l-19.504,19.203   c-5.701,6.001-15.3,6.001-21.002,0l-25.805-25.504h-53.708c-5.701,0-10.802-3.3-13.502-8.402c-2.401-5.1-1.8-11.102,1.5-15.601   l90.014-120.019c5.102-6.602,14.403-8.102,21.003-3.001h42.007c6.6-5.1,15.901-3.601,21.003,3.001l90.014,120.019   C481.335,251.348,481.935,257.349,479.534,262.449z" data-original="#78B22A" class=""></path>
</g><path style="fill:#679C20" d="M479.534,262.449c-2.701,5.102-7.801,8.402-13.502,8.402h-53.707l-25.806,25.504  c-2.699,3.001-6.6,4.502-10.501,4.502c-3.901,0-7.801-1.5-10.501-4.502l-19.504-19.203V123.829h21.003  c6.6-5.1,15.901-3.601,21.003,3.001l90.014,120.019C481.335,251.348,481.935,257.349,479.534,262.449z" data-original="#679C20" class="active-path"></path><path style="fill:#93D632;" d="M448.029,126.83L358.016,5.811c-3.001-3.603-7.501-5.701-12.003-5.701s-9.001,2.098-12.003,5.701  L243.996,126.83c-3.301,4.5-3.901,10.501-1.5,15.601c2.701,5.102,7.801,8.402,13.502,8.402h53.707l25.805,25.503  c2.699,3.001,6.6,4.502,10.501,4.502s7.801-1.5,10.501-4.502l25.805-25.503h53.707c5.701,0,10.802-3.301,13.502-8.402  C451.93,137.331,451.33,131.33,448.029,126.83z" data-original="#93D632"></path><path style="fill:#78B22A;" d="M356.514,176.337c-2.699,3.001-6.6,4.502-10.501,4.502V0.111c4.502,0,9.001,2.098,12.003,5.701  L448.03,126.83c3.301,4.5,3.901,10.501,1.5,15.601c-2.701,5.102-7.801,8.402-13.502,8.402h-53.707L356.514,176.337z" data-original="#78B22A" class=""></path><rect x="135.98" y="360.865" style="fill:#9E5015;" width="60.009" height="151.023" data-original="#9E5015"></rect><rect x="165.985" y="360.865" style="fill:#663300;" width="30.005" height="151.023" data-original="#663300"></rect><g>
	<path style="fill:#93D632;" d="M451.029,496.886c0,8.4-6.6,15.002-15.002,15.002H75.971c-8.402,0-15.002-6.602-15.002-15.002   c0-8.402,6.6-15.002,15.002-15.002h360.056C444.429,481.884,451.029,488.484,451.029,496.886z" data-original="#93D632"></path>
	<path style="fill:#93D632;" d="M329.511,382.468c-2.701,5.102-7.801,8.402-13.502,8.402H14.963c-5.701,0-10.802-3.3-13.502-8.402   c-2.401-5.1-1.8-11.102,1.5-15.601l91.014-120.019c5.102-6.602,14.403-7.801,21.003-3.001h102.017   c6.6-5.1,15.901-3.601,21.003,3.001l90.014,120.019C331.311,371.367,331.911,377.368,329.511,382.468z" data-original="#93D632"></path>
</g><g>
	<path style="fill:#78B22A;" d="M329.511,382.468c-2.701,5.102-7.801,8.402-13.502,8.402H165.986V243.847h51.008   c6.6-5.1,15.901-3.601,21.003,3.001l90.014,120.019C331.311,371.367,331.911,377.368,329.511,382.468z" data-original="#78B22A" class=""></path>
	<path style="fill:#78B22A;" d="M299.506,262.449c-2.701,5.102-7.801,8.402-13.502,8.402h-53.707l-25.806,25.504   c-2.699,3.001-6.6,4.502-10.501,4.502c-3.901,0-7.801-1.5-10.501-4.502l-19.504-19.203l-19.504,19.203   c-5.701,6.001-15.3,6.001-21.002,0l-25.805-25.504H45.966c-5.701,0-10.802-3.3-13.502-8.402c-2.401-5.1-1.8-11.102,1.5-15.601   l90.014-120.019c5.102-6.602,14.403-8.102,21.003-3.001h42.007c6.6-5.1,15.901-3.601,21.003,3.001l90.014,120.019   C301.307,251.348,301.907,257.349,299.506,262.449z" data-original="#78B22A" class=""></path>
</g><path style="fill:#679C20" d="M299.506,262.449c-2.701,5.102-7.801,8.402-13.502,8.402h-53.707l-25.806,25.504  c-2.699,3.001-6.6,4.502-10.501,4.502c-3.901,0-7.801-1.5-10.501-4.502l-19.504-19.203V123.829h21.003  c6.6-5.1,15.901-3.601,21.003,3.001l90.014,120.019C301.307,251.348,301.907,257.349,299.506,262.449z" data-original="#679C20" class="active-path"></path><path style="fill:#93D632;" d="M268.002,126.83L177.988,5.811c-3.001-3.603-7.501-5.701-12.003-5.701  c-4.502,0-9.001,2.098-12.003,5.701L63.968,126.83c-3.301,4.5-3.901,10.501-1.5,15.601c2.701,5.102,7.801,8.402,13.502,8.402h53.707  l25.805,25.503c2.699,3.001,6.6,4.502,10.501,4.502c3.901,0,7.801-1.5,10.501-4.502l25.805-25.503h53.707  c5.701,0,10.802-3.301,13.502-8.402C271.902,137.331,271.302,131.33,268.002,126.83z" data-original="#93D632"></path><g>
	<path style="fill:#78B22A;" d="M176.486,176.337c-2.699,3.001-6.6,4.502-10.501,4.502V0.111c4.502,0,9.001,2.098,12.003,5.701   l90.014,121.019c3.301,4.5,3.901,10.501,1.5,15.601c-2.701,5.102-7.801,8.402-13.502,8.402h-53.707L176.486,176.337z" data-original="#78B22A" class=""></path>
	<path style="fill:#78B22A;" d="M451.029,496.886c0,8.4-6.6,15.002-15.002,15.002H255.999v-30.005h180.028   C444.429,481.884,451.029,488.484,451.029,496.886z" data-original="#78B22A" class=""></path>
</g></g> </svg>