<?xml version="1.0" encoding="iso-8859-1"?>
<!-- Generator: Adobe Illustrator 19.0.0, SVG Export Plug-In . SVG Version: 6.00 Build 0)  -->
<svg version="1.1" id="Capa_1" xmlns="http://www.w3.org/2000/svg" xmlns:xlink="http://www.w3.org/1999/xlink" x="0px" y="0px"
	 viewBox="0 0 483.004 483.004" style="enable-background:new 0 0 483.004 483.004;" xml:space="preserve">
<path style="fill:#ED6262;" d="M481.431,241.746c-26.955-32.376-53.911-58.729-80.113-80.264c-0.301-0.301-0.753-0.452-1.054-0.753
	C271.059,55.318,159.925,68.118,159.925,68.118c0,28.009,21.384,70.475,21.384,70.475S69.722,190.396,51.953,223.826
	c0,0,4.066-35.238-51.953-54.814c0,0,10.089,18.372,3.012,37.496c0,0-10.24,23.944,14.908,38.249c0,0-24.546,11.294-13.704,51.2
	c0,0-1.807,20.932-4.216,28.16c0,0,48.339-13.704,51.953-53.76c82.221,80.565,214.739,112.791,214.739,112.791l-16.113,32.226
	c106.165-23.341,228.442-159.322,228.442-159.322C486.249,247.168,481.431,241.746,481.431,241.746z"/>
<circle style="fill:#FFFFFF;" cx="418.108" cy="233.675" r="16.821"/>
<circle style="fill:#454545;" cx="418.108" cy="233.675" r="9.788"/>
<circle style="fill:#FFFFFF;" cx="424.312" cy="227.501" r="6.355"/>
<path style="fill:#FF9F5F;" d="M17.784,244.788c-0.587,0.271-24.215,11.776-13.613,51.245c0,0-1.792,20.887-4.171,28.04
	c0,0,48.324-13.719,51.908-53.7c82.327,80.535,214.769,112.76,214.769,112.76l-16.113,32.211
	c106.195-23.251,228.488-159.277,228.488-159.277c2.5-3.132,3.494-5.798,3.795-7.966c-65.536,30.615-144.339,48.489-229.12,48.489
	C165.948,296.576,84.646,277.391,17.784,244.788z"/>
<path style="fill:#CD484B;" d="M400.264,160.73C294.4,84.532,181.308,138.593,181.308,138.593s-21.384-42.466-21.384-70.475
	C159.925,68.118,271.059,55.318,400.264,160.73z"/>
<g>
	<path style="fill:#EBCDB7;" d="M239.27,361.374c2.711-4.683,4.713-10.436,4.713-18.432c0-26.579-21.143-27.302-21.143-50.327
		c0-23.552,21.143-22.784,21.143-51.411c-0.587-25.736-21.143-26.534-21.143-49.318c0-11.144,4.488-16.489,9.683-22.679
		c5.316-6.4,11.415-13.643,11.46-27.482c0-1.702-1.009-3.298-2.635-3.825c-2.575-0.843-5.105,1.084-5.105,3.674
		c0,11.144-4.488,16.489-9.683,22.679c-5.346,6.355-11.46,13.628-11.46,27.633c0,26.744,21.143,27.166,21.143,50.327
		c0,23.206-21.143,23.537-21.143,50.402c0,0.768,0,1.551,0.151,2.244c1.069,24.681,20.977,25.54,20.977,48.083
		c0,6.37-1.446,10.857-3.644,14.667c-1.461,2.53,0.437,5.677,3.358,5.677C237.312,363.286,238.592,362.563,239.27,361.374z"/>
	<path style="fill:#EBCDB7;" d="M270.246,361.374c2.711-4.683,4.713-10.436,4.713-18.432c0-26.579-21.143-27.302-21.143-50.327
		c0-23.206,21.143-23.537,21.143-50.402c0-26.669-21.143-27.272-21.143-50.327c0-11.144,4.488-16.489,9.683-22.679
		c5.316-6.4,11.415-13.643,11.46-27.482c0-1.702-1.009-3.298-2.635-3.825c-2.575-0.843-5.105,1.084-5.105,3.674
		c0,11.144-4.488,16.489-9.683,22.679c-8.312,9.879-12.258,17.016-11.309,31.428h0.075c1.912,23.808,20.902,23.401,20.902,46.532
		c0,23.206-21.143,23.537-21.143,50.402c0,26.744,21.143,27.166,21.143,50.327c0,6.37-1.446,10.857-3.644,14.667
		c-1.461,2.53,0.437,5.677,3.358,5.677C268.288,363.286,269.553,362.563,270.246,361.374z"/>
	<path style="fill:#EBCDB7;" d="M301.207,361.374c2.711-4.683,4.713-10.436,4.713-18.432c0-26.579-21.143-27.302-21.143-50.327
		c0-23.251,21.143-23.522,21.143-50.402c0-25.675-19.637-27.181-20.977-47.691c-1.852-10.135,3.448-18.071,9.517-25.314
		c5.316-6.4,11.415-13.643,11.46-27.482c0-1.702-1.009-3.298-2.635-3.825c-2.575-0.843-5.105,1.084-5.105,3.674
		c0,11.144-4.488,16.489-9.683,22.679c-5.346,6.355-11.46,13.628-11.46,27.633c0,22.829,12.619,23.416,18.808,38.475
		c1.476,3.177,2.319,6.972,2.319,11.851c0,23.206-21.143,23.537-21.143,50.402c0,26.744,21.143,27.166,21.143,50.327
		c0,6.37-1.446,10.857-3.644,14.667c-1.461,2.53,0.437,5.677,3.358,5.677C299.249,363.286,300.529,362.563,301.207,361.374z"/>
	<path style="fill:#EBCDB7;" d="M329.141,141.59c0,11.144-4.488,16.489-9.683,22.679c-5.346,6.355-11.46,13.628-11.46,27.633
		c0,26.865,21.143,27.046,21.143,50.327c0,22.874-21.143,23.718-21.143,50.402c0,26.744,21.143,27.166,21.143,50.327
		c0,6.37-1.446,10.857-3.644,14.667c-1.461,2.53,0.437,5.677,3.358,5.677c1.37,0,2.635-0.723,3.328-1.913
		c2.711-4.683,4.713-10.436,4.713-18.432c0-26.579-21.128-27.302-21.128-50.327c0-23.281,21.128-23.522,21.128-50.402
		c0-26.744-21.128-27.166-21.128-50.327c0-11.144,4.488-16.489,9.683-22.679c5.316-6.4,11.415-13.643,11.46-27.482
		c0-1.702-1.009-3.298-2.635-3.825C331.686,137.073,329.141,139,329.141,141.59z"/>
</g>
<g>
</g>
<g>
</g>
<g>
</g>
<g>
</g>
<g>
</g>
<g>
</g>
<g>
</g>
<g>
</g>
<g>
</g>
<g>
</g>
<g>
</g>
<g>
</g>
<g>
</g>
<g>
</g>
<g>
</g>
</svg>
